# xmcd CD database file
#
# Track frame offsets:
#	150
#	13665
#	26355
#	39027
#	51867
#	64557
#	76467
#	90515
#	104827
#	117145
#	133422
#	147842
#	159520
#	173105
#	185607
#
# Disc length: 2657 seconds
#
# Revision: 0
# Processed by: cddbd v1.5.2PL0 Copyright (c) Steve Scherf et al.
# Submitted via: CDex 1.70beta2
#
DISCID=c20a5f0f
DTITLE=Various Artist - The Time-Life Treasury of the Blues (Vol 2, Disc 2)
DYEAR=2003
DGENRE=Blues
TTITLE0=Feelin' Good - Little Junior's Blue Flames
TTITLE1=Let the Good Times Roll - Louis Jordan and His Tympany Five
TTITLE2=Good Rockin' Tonight - Wynonie Harris
TTITLE3=One Scotch, One Bourbon, One Beer - Amos Milburn
TTITLE4=Hey Bartender - Floyd Dixon
TTITLE5=Hide Away - Freddy King
TTITLE6=Black Night - Charles Brown
TTITLE7=I Don't Know - Willie Mabon
TTITLE8=It's Love Baby (24 Hours of the Day) - Ruth Brown
TTITLE9=I'm Getting 'Long Alright - Big Maybelle
TTITLE10=Reconsider Baby - Lowell Fulson
TTITLE11=Little School Girl - Smokey Hogg
TTITLE12=Crawlin' King Snake - John Lee Hooker
TTITLE13=Key to the Highway - Little Walter and His Jukes
TTITLE14=Frosty - Albert Collins
EXTD=YEAR: 2003
EXTT0=
EXTT1=
EXTT2=
EXTT3=
EXTT4=
EXTT5=
EXTT6=
EXTT7=
EXTT8=
EXTT9=
EXTT10=
EXTT11=
EXTT12=
EXTT13=
EXTT14=
PLAYORDER=
